<svg width="475" height="336" viewBox="0 0 475 336" fill="none" xmlns="http://www.w3.org/2000/svg">
<path d="M460.475 104.394C438.672 64.6507 389.941 39.9805 345.936 50.8631C321.963 56.8204 300.983 72.0681 276.799 77.0814C256.276 81.251 234.937 77.7958 216.779 67.3627C190.235 51.9876 173.291 23.1108 145.975 9.17098C108.328 -10.0671 59.3131 5.93376 32.3346 38.4795C-31.5546 115.553 7.37466 226.527 78.3709 282.669C114.388 311.15 135.083 321.014 187.152 332.621C231.381 342.525 306.611 328.106 349.909 314.684C393.207 301.261 433.017 273.626 455.789 234.416C478.561 195.205 482.289 144.132 460.475 104.394Z" fill="#F2F0FB"/>
<mask id="mask0_3069_16591" style="mask-type:alpha" maskUnits="userSpaceOnUse" x="0" y="0" width="475" height="336">
<path d="M460.475 104.394C438.672 64.6507 389.941 39.9804 345.936 50.8631C321.963 56.8204 300.983 72.0681 276.799 77.0814C256.276 81.251 234.937 77.7958 216.779 67.3627C190.235 51.9876 173.291 23.1108 145.975 9.17098C108.328 -10.0671 59.3131 5.93376 32.3346 38.4795C-31.5546 115.553 7.37466 226.527 78.3709 282.669C114.388 311.151 135.083 321.014 187.152 332.621C231.381 342.525 306.611 328.106 349.909 314.684C393.207 301.261 433.017 273.626 455.789 234.416C478.561 195.205 482.289 144.132 460.475 104.394Z" fill="#F1F1FA"/>
</mask>
<g mask="url(#mask0_3069_16591)">
<path d="M339.24 288.628L344.415 290.742L41.1744 374.898C-48.314 365.392 -219.362 335.254 -187.647 290.742C-148.003 235.101 -103.491 201.717 0.835068 201.717C126.39 201.717 143.13 208.552 339.24 288.628Z" fill="#BBBBD6"/>
<path d="M373.914 250.328C428.416 250.328 472.321 262.408 518.496 320.543L370.886 388.493C273.489 378.174 135.013 389.248 169.531 340.928C212.678 280.528 260.368 250.328 373.914 250.328Z" fill="#BBBBD6" stroke="#F1F1FA" stroke-width="3.98616"/>
<path d="M164.168 169.772C164.168 170.306 164.01 170.828 163.712 171.273C163.415 171.717 162.993 172.063 162.499 172.267C162.005 172.471 161.461 172.523 160.938 172.418C160.414 172.313 159.933 172.055 159.556 171.676C159.179 171.297 158.923 170.815 158.82 170.29C158.717 169.766 158.772 169.223 158.979 168.73C159.185 168.237 159.533 167.816 159.979 167.521C160.424 167.226 160.947 167.07 161.482 167.072C161.836 167.072 162.186 167.142 162.513 167.278C162.839 167.414 163.136 167.613 163.386 167.864C163.636 168.115 163.833 168.412 163.967 168.74C164.102 169.067 164.17 169.418 164.168 169.772Z" fill="#263238"/>
<path d="M177.076 159.178C178.567 159.178 179.776 157.969 179.776 156.479C179.776 154.988 178.567 153.779 177.076 153.779C175.586 153.779 174.377 154.988 174.377 156.479C174.377 157.969 175.586 159.178 177.076 159.178Z" fill="#263238"/>
<path d="M140.641 203.048C140.644 203.582 140.488 204.105 140.193 204.551C139.898 204.997 139.477 205.345 138.984 205.551C138.491 205.757 137.948 205.812 137.423 205.71C136.899 205.607 136.417 205.351 136.038 204.974C135.659 204.597 135.401 204.116 135.295 203.592C135.19 203.068 135.243 202.525 135.447 202.031C135.651 201.537 135.997 201.114 136.441 200.817C136.885 200.52 137.408 200.361 137.942 200.361C138.296 200.36 138.647 200.428 138.974 200.562C139.301 200.696 139.599 200.894 139.85 201.144C140.101 201.393 140.3 201.69 140.436 202.017C140.571 202.344 140.641 202.694 140.641 203.048Z" fill="#263238"/>
<path d="M-115.577 279.217C-115.626 279.093 -115.675 278.967 -115.724 278.842C-84.8142 303.774 -51.3916 318.245 -24.043 317.557C-17.1082 317.374 -10.227 316.29 -3.57243 314.333L2.28504 319.181C-6.13428 322.12 -14.9618 323.721 -23.8767 323.928C-52.8913 324.708 -79.1553 315.638 -111.355 289.578C-112.923 286.228 -114.435 282.69 -115.891 278.964C-115.787 279.049 -115.682 279.133 -115.577 279.217ZM-115.577 279.217C-114.168 282.804 -112.707 286.216 -111.194 289.452M-115.577 279.217C-84.7246 304.03 -51.3726 318.445 -24.038 317.757C-17.0105 317.572 -10.038 316.464 -3.29971 314.461L-2.98534 314.367L-3.21234 314.13C-10.6552 306.369 -14.4144 296.226 -14.3634 283.886V283.885C-14.3634 270.383 -8.56738 264.296 -3.79477 261.569L-3.79446 261.569C2.97405 257.685 12.2609 258.205 20.4272 262.963C29.4286 268.213 34.7702 277.079 34.7328 286.685C34.6711 290.626 33.7158 294.501 31.939 298.02C30.1622 301.538 27.61 304.608 24.4748 306.997L24.4743 306.997C19.7774 310.601 14.6875 313.662 9.30208 316.121L8.93951 316.287L9.28894 316.478C24.7736 324.974 42.7362 327.805 60.0831 324.482L60.0845 324.482C87.3695 319.066 110.172 309.384 127.843 295.698C141.677 285.067 152.786 271.3 160.255 255.533C167.723 239.767 171.339 222.451 170.803 205.013L170.803 204.901L170.803 204.891C169.226 173.29 150.781 142.424 123.781 126.245C100.369 112.205 70.3792 108.366 39.3533 115.411C20.0788 119.791 -6.18391 130.184 -21.6666 154.851L-21.4972 154.957L-21.6666 154.851C-30.0063 168.143 -33.0464 183.035 -32.2815 196.519C-31.5168 210 -26.9477 222.091 -20.047 229.777C-15.0984 235.294 -7.89389 237.042 -0.0717545 237.03C7.69473 237.017 16.1107 235.268 23.6075 233.71L23.7665 233.677L23.7668 233.677L28.7289 232.654C32.8017 231.844 39.968 229.304 48.4146 225.959C56.867 222.611 66.6182 218.45 75.8694 214.387C85.1208 210.324 93.8734 206.358 100.329 203.404C103.557 201.926 106.211 200.701 108.065 199.843C108.787 199.509 109.387 199.23 109.854 199.014L110.22 198.845C110.467 198.73 110.659 198.641 110.791 198.58L112.08 203.429C112.042 203.447 111.999 203.466 111.952 203.488C111.797 203.559 111.584 203.658 111.316 203.784C110.779 204.036 110.021 204.395 109.07 204.846C108.76 204.994 108.428 205.151 108.077 205.318C106.278 206.172 103.961 207.272 101.254 208.55C94.782 211.605 86.0794 215.679 76.8897 219.844C67.6998 224.009 58.0242 228.265 49.6061 231.687C41.1825 235.112 34.035 237.693 29.8924 238.517C28.3041 238.824 26.6651 239.17 24.9892 239.528C16.6694 241.276 7.33446 243.23 -1.44802 243.05C-10.226 242.87 -18.4242 240.558 -24.4953 233.795C-33.309 223.963 -38.2226 209.762 -38.3119 193.796V193.796C-38.4097 178.959 -34.3995 164.384 -26.7255 151.685C-10.1357 125.309 17.6263 114.235 38.0346 109.558C70.5766 102.173 102.121 106.265 126.85 121.048C155.449 138.284 174.986 171.063 176.723 204.541L176.723 204.547C176.863 206.244 178.576 230.664 165.509 258.304C157.669 274.856 145.998 289.303 131.462 300.447L131.462 300.448C113.057 314.702 89.4329 324.721 61.1832 330.371C56.0818 331.385 50.893 331.893 45.6919 331.89C40.144 331.888 34.6126 331.29 29.1931 330.103M29.1931 330.103C29.1932 330.103 29.1933 330.103 29.1933 330.103L29.1504 330.299L29.1931 330.103Z" fill="#4326C4" stroke="black" stroke-width="0.4"/>
<path d="M7.37651 322.484C6.51546 322.243 5.70501 321.849 4.98423 321.32C3.1646 320.17 1.43278 318.888 -0.19695 317.482C-1.85326 316.115 -3.39761 314.617 -4.81523 313.004C-5.45317 312.371 -5.96157 311.619 -6.31201 310.791C-6.23525 310.791 -5.63399 311.559 -4.48262 312.71C-3.33125 313.861 -1.69374 315.397 0.19963 316.996C2.093 318.595 3.8968 319.976 5.22728 320.91C5.98008 321.383 6.69831 321.909 7.37651 322.484Z" fill="#263238"/>
<path d="M14.08 318.747C13.0825 318.691 12.1051 318.444 11.2015 318.017C8.98406 317.104 6.91457 315.867 5.06087 314.346C3.19905 312.842 1.5202 311.124 0.0587968 309.229C-0.595082 308.465 -1.12204 307.601 -1.50195 306.67C-1.4252 306.67 -0.785537 307.54 0.404214 308.909C1.95852 310.689 3.67129 312.325 5.52142 313.796C7.33772 315.283 9.3264 316.545 11.4446 317.557C13.0053 318.376 14.1055 318.644 14.08 318.747Z" fill="#263238"/>
<path d="M148.995 277.17C148.477 278.165 147.85 279.1 147.128 279.959C143.842 284.254 140.054 288.141 135.844 291.536C135.008 292.283 134.09 292.931 133.106 293.468C133.857 292.669 134.665 291.925 135.524 291.242C137.059 289.873 139.145 287.942 141.345 285.703C143.546 283.464 145.413 281.302 146.744 279.729C147.431 278.822 148.183 277.967 148.995 277.17Z" fill="white"/>
<path d="M201.638 207.166L190.265 148.702C190.011 147.592 189.335 146.624 188.38 146.003C187.426 145.382 186.267 145.156 185.149 145.374C184.031 145.591 183.042 146.235 182.39 147.169C181.738 148.103 181.474 149.253 181.655 150.378L182.18 153.039L158.653 158.821C156.159 159.433 153.852 160.647 151.936 162.358C150.02 164.069 148.553 166.224 147.664 168.633L133.477 172.126C131.116 172.707 129.082 174.202 127.823 176.281C126.563 178.361 126.181 180.856 126.76 183.217L128.04 188.335L114.159 191.763C113.239 191.99 112.373 192.396 111.61 192.957C110.847 193.519 110.202 194.225 109.712 195.036C109.222 195.847 108.897 196.746 108.754 197.683C108.612 198.619 108.655 199.575 108.882 200.494C109.109 201.414 109.515 202.28 110.076 203.043C110.638 203.806 111.344 204.451 112.155 204.941C112.966 205.431 113.865 205.757 114.802 205.899C115.738 206.042 116.694 205.998 117.613 205.771L131.507 202.356L132.492 206.36C133.073 208.721 134.567 210.754 136.647 212.014C138.727 213.273 141.222 213.655 143.583 213.076L158.027 209.52V209.405C159.919 211.023 162.17 212.168 164.592 212.744C167.015 213.32 169.54 213.311 171.958 212.718L192.836 207.601L193.079 208.88C193.334 209.99 194.009 210.958 194.964 211.579C195.919 212.2 197.077 212.426 198.195 212.208C199.313 211.991 200.303 211.347 200.954 210.413C201.606 209.479 201.87 208.329 201.689 207.204L201.638 207.166Z" fill="#4326C4"/>
<path d="M201.638 207.167C201.728 207.487 201.766 207.82 201.754 208.152C201.737 209.143 201.385 210.099 200.756 210.864C200.238 211.483 199.564 211.952 198.803 212.222C198.043 212.492 197.224 212.553 196.432 212.399C195.657 212.234 194.939 211.867 194.353 211.334C193.766 210.802 193.331 210.123 193.093 209.367C192.926 208.804 192.85 208.229 192.722 207.64L192.888 207.743L177.536 211.58L172.944 212.732C171.318 213.199 169.633 213.432 167.942 213.423C164.238 213.352 160.674 211.995 157.861 209.585L158.245 209.342V209.444L158.309 209.687H158.065C153.191 210.877 148.087 212.246 142.599 213.461C141.135 213.649 139.647 213.492 138.255 213.003C136.862 212.515 135.603 211.708 134.577 210.647C133.513 209.552 132.736 208.212 132.313 206.745C131.917 205.286 131.584 203.828 131.213 202.357L131.558 202.574L119.84 205.529C118.829 205.747 117.87 206.054 116.782 206.22C115.397 206.389 113.991 206.167 112.725 205.581C111.458 204.994 110.381 204.065 109.613 202.899C108.846 201.733 108.42 200.375 108.382 198.98C108.345 197.585 108.697 196.206 109.401 195.001C109.994 194.024 110.791 193.188 111.739 192.549C112.686 191.911 113.761 191.486 114.889 191.304L127.963 188.092L127.733 188.463C127.477 187.402 127.209 186.301 126.927 185.188C126.596 184.046 126.361 182.878 126.224 181.696C126.049 179.258 126.823 176.847 128.386 174.967C129.149 174.043 130.083 173.275 131.136 172.702C132.185 172.164 133.305 171.777 134.462 171.551L147.588 168.327L147.383 168.519C148.635 165.171 150.961 162.333 153.997 160.447C155.478 159.545 157.093 158.884 158.782 158.489L163.643 157.287L182.116 152.771L181.912 153.091C181.771 152.4 181.643 151.696 181.502 151.006C181.32 150.3 181.272 149.567 181.362 148.843C181.476 148.128 181.757 147.45 182.181 146.862C182.605 146.274 183.161 145.794 183.803 145.46C184.446 145.125 185.158 144.946 185.883 144.936C186.607 144.926 187.324 145.086 187.976 145.402C188.614 145.694 189.176 146.128 189.62 146.671C190.063 147.215 190.376 147.853 190.534 148.536L193.336 163.005C195.076 172.088 196.598 180.02 197.852 186.583C199.105 193.146 200.065 198.263 200.743 201.807C201.063 203.546 201.306 204.89 201.472 205.824C201.549 206.271 201.613 206.604 201.651 206.86C201.663 206.979 201.663 207.099 201.651 207.218C201.608 207.107 201.578 206.991 201.562 206.873C201.562 206.617 201.434 206.284 201.344 205.849L200.513 201.832C199.809 198.301 198.786 193.159 197.481 186.647C196.176 180.135 194.628 172.165 192.837 163.095C191.941 158.558 190.99 153.743 189.984 148.652C189.843 148.049 189.567 147.486 189.177 147.005C188.787 146.524 188.293 146.138 187.732 145.875C187.155 145.601 186.52 145.465 185.88 145.48C185.24 145.494 184.613 145.659 184.048 145.96C183.483 146.261 182.997 146.69 182.628 147.213C182.259 147.736 182.018 148.338 181.924 148.971C181.834 149.634 181.878 150.309 182.052 150.954C182.193 151.645 182.334 152.336 182.462 153.04V153.295L182.206 153.359L163.746 157.927C160.56 158.809 157.132 159.206 154.279 161.01C151.345 162.824 149.096 165.559 147.882 168.788L147.818 168.941H147.665L134.539 172.178C133.435 172.387 132.367 172.753 131.366 173.265C130.39 173.804 129.522 174.519 128.808 175.376C127.345 177.129 126.62 179.381 126.787 181.658C126.918 182.806 127.149 183.94 127.477 185.048C127.746 186.174 128.027 187.274 128.283 188.336L128.36 188.63L128.053 188.707L115.055 191.918C114.004 192.071 112.999 192.455 112.114 193.044C111.229 193.632 110.486 194.41 109.938 195.321C109.306 196.425 108.994 197.683 109.035 198.954C109.076 200.225 109.469 201.46 110.171 202.522C110.872 203.583 111.855 204.428 113.009 204.964C114.162 205.499 115.442 205.704 116.706 205.555C117.678 205.427 118.701 205.107 119.699 204.877L131.405 202.011L131.686 201.947L131.75 202.216C132.121 203.687 132.454 205.171 132.838 206.591C133.234 207.971 133.963 209.232 134.961 210.263C135.926 211.264 137.11 212.026 138.42 212.49C139.73 212.954 141.13 213.107 142.509 212.937C147.895 211.734 153.089 210.378 157.938 209.214L157.771 209.508V209.406L157.592 208.676L158.155 209.163C160.886 211.503 164.346 212.819 167.942 212.885C169.594 212.899 171.24 212.675 172.829 212.22L177.421 211.107L192.773 207.384H192.914V207.525C193.042 208.114 193.118 208.715 193.272 209.239C193.425 209.756 193.677 210.238 194.014 210.659C194.639 211.419 195.498 211.95 196.457 212.169C197.071 212.295 197.705 212.287 198.315 212.145C198.925 212.003 199.497 211.731 199.992 211.347C200.487 210.963 200.892 210.476 201.181 209.92C201.47 209.364 201.634 208.752 201.664 208.126C201.672 207.806 201.663 207.486 201.638 207.167Z" fill="#263238"/>
<path d="M193.297 207.475C193.131 207.475 190.393 195.372 187.182 180.379C183.971 165.386 181.489 153.181 181.668 153.143C181.847 153.104 184.572 165.232 187.796 180.238C191.02 195.244 193.476 207.436 193.297 207.475Z" fill="#263238"/>
<path d="M157.976 209.366C157.81 209.366 155.417 200.296 152.526 189.025C149.635 177.755 147.524 168.557 147.69 168.557C147.857 168.557 150.249 177.627 153.14 188.923C156.031 200.219 158.142 209.366 157.976 209.366Z" fill="#263238"/>
<path d="M131.482 202.357C130.543 200.139 129.861 197.821 129.448 195.448C128.835 193.125 128.365 190.767 128.041 188.387C128.972 190.61 129.65 192.932 130.062 195.308C130.675 197.627 131.149 199.981 131.482 202.357Z" fill="#263238"/>
<path d="M144.096 171.998C144.096 172.087 142.727 172.292 140.527 172.753C139.426 172.983 138.122 173.277 136.689 173.674C135.147 174.069 133.661 174.654 132.262 175.414C130.842 176.058 129.721 177.22 129.128 178.663C128.841 179.924 128.815 181.23 129.051 182.501C129.333 184.714 129.704 186.07 129.614 186.096C129.094 184.979 128.753 183.788 128.604 182.565C128.312 181.233 128.312 179.854 128.604 178.522C128.832 177.716 129.274 176.987 129.883 176.411C130.508 175.811 131.209 175.295 131.968 174.876C133.407 174.082 134.948 173.488 136.548 173.111C138.006 172.74 139.337 172.497 140.386 172.318C141.603 172.047 142.851 171.94 144.096 171.998Z" fill="white"/>
<path d="M177.742 156.479C177.358 156.664 176.948 156.789 176.526 156.85C175.746 157.042 174.595 157.31 173.175 157.617L162.096 159.946C160.088 160.364 158.144 161.043 156.313 161.967C154.83 162.738 153.523 163.81 152.475 165.114C151.539 166.346 150.888 167.77 150.569 169.284C150.503 168.857 150.534 168.419 150.659 168.005C150.94 166.862 151.449 165.787 152.156 164.845C153.196 163.45 154.527 162.297 156.057 161.468C157.919 160.476 159.914 159.757 161.981 159.331C166.33 158.398 170.258 157.707 173.123 157.182C174.543 156.926 175.682 156.734 176.514 156.607C176.917 156.519 177.329 156.476 177.742 156.479Z" fill="white"/>
<path d="M125.61 191.572C124.868 192.076 124.025 192.412 123.141 192.557C121.542 192.992 119.303 193.171 116.885 193.683C115.768 193.91 114.688 194.289 113.674 194.809C112.855 195.235 112.115 195.797 111.486 196.472C110.943 197.144 110.475 197.873 110.092 198.647C110.148 197.732 110.519 196.864 111.141 196.191C111.762 195.42 112.527 194.777 113.392 194.297C114.436 193.699 115.567 193.268 116.744 193.018C119.213 192.493 121.465 192.391 123.038 192.071C124.612 191.751 125.571 191.457 125.61 191.572Z" fill="white"/>
<path d="M187.324 146.529C187.324 146.631 186.851 146.618 186.172 146.797C185.308 147.032 184.531 147.512 183.934 148.179C183.359 148.873 183.006 149.725 182.923 150.622C182.846 151.313 182.923 151.774 182.834 151.787C182.744 151.799 182.514 151.39 182.475 150.61C182.432 149.575 182.779 148.561 183.448 147.77C184.128 146.991 185.07 146.49 186.096 146.362C186.876 146.273 187.337 146.452 187.324 146.529Z" fill="white"/>
<path d="M586.358 332.152L586.357 332.152C583.821 332.16 581.298 331.796 578.867 331.073C566.764 327.449 561.062 321.283 558.492 314.295C555.923 307.308 556.47 299.473 556.962 292.434L556.967 292.363C557.44 285.802 557.691 280.413 556.453 276.156C555.832 274.021 554.835 272.166 553.304 270.587C551.774 269.009 549.717 267.715 546.987 266.69L546.987 266.69C539.786 263.992 534.675 263.944 530.233 265.587C525.815 267.22 522.083 270.52 517.632 274.455L517.603 274.48L517.736 274.63L517.603 274.48L517.594 274.489C512.274 279.195 506.33 284.453 497.72 287.948C489.107 291.444 477.809 293.183 461.783 290.807C445.192 288.344 418.36 279.572 385.496 251.732L385.495 251.731C373.827 241.917 363.037 231.105 353.246 219.418L357.896 215.679C359.266 217.349 371.386 231.933 389.683 247.371C408.926 263.606 435.027 280.807 462.658 284.896C477.27 287.062 487.474 285.597 495.304 282.453C503.12 279.315 508.553 274.511 513.624 270.028L513.647 270.008L513.514 269.858L513.647 270.008C518.206 265.974 522.606 262.083 528.095 260.027C533.572 257.976 540.154 257.746 549.085 261.09C556.944 264.042 560.612 268.924 562.218 274.573C563.83 280.242 563.368 286.691 562.926 292.782L562.924 292.81C562.414 299.907 561.934 306.577 564.029 312.199C566.135 317.854 570.829 322.418 580.582 325.341L580.639 325.15L580.582 325.341C586.112 326.997 592.063 326.041 598.13 323.375C604.198 320.71 610.398 316.327 616.442 311.101C628.509 300.665 639.985 286.837 648.556 276.508L648.596 276.459C649.415 275.475 650.2 274.527 650.954 273.617C653.028 271.113 654.867 268.893 656.522 266.983C658.724 264.441 660.591 262.457 662.248 261.084L666.772 264.693C665.925 265.703 664.56 267.239 662.886 269.124C662.409 269.662 661.906 270.228 661.383 270.818C658.93 273.586 656.03 276.885 653.189 280.284L653.188 280.285C644.449 290.835 633.686 303.808 622.125 314.144C610.556 324.487 598.227 332.152 586.358 332.152Z" fill="#4326C4" stroke="black" stroke-width="0.4"/>
<path d="M496.18 281.987C496.18 281.987 495.924 282.23 495.412 282.55C494.695 283.025 493.947 283.453 493.174 283.829C490.616 285.081 487.913 286.009 485.127 286.593C482.343 287.166 479.497 287.385 476.658 287.245C475.801 287.2 474.947 287.111 474.099 286.977C473.783 286.95 473.473 286.877 473.178 286.759C473.178 286.657 474.534 286.759 476.684 286.759C482.297 286.787 487.854 285.637 492.995 283.382C494.952 282.486 496.129 281.834 496.18 281.987Z" fill="white"/>
<path d="M358.604 220.798C357.292 222.241 355.461 223.105 353.513 223.198C351.565 223.292 349.66 222.608 348.216 221.297L336.984 211.063L346.886 200.176L358.105 210.41C359.548 211.722 360.412 213.553 360.505 215.501C360.599 217.449 359.915 219.354 358.604 220.798Z" fill="#4326C4"/>
<path d="M358.604 220.796C358.981 220.245 359.327 219.672 359.64 219.082C360.43 217.413 360.554 215.505 359.986 213.748C359.601 212.532 358.899 211.441 357.951 210.588L354.561 207.556C352.169 205.381 349.508 202.989 346.681 200.443H347.116L342.165 205.893L337.214 211.33V210.895L345.043 218.02L348.395 221.104C349.332 221.963 350.48 222.558 351.721 222.831C353.527 223.226 355.416 222.92 357.005 221.973C357.565 221.604 358.103 221.203 358.617 220.771C358.207 221.32 357.7 221.788 357.12 222.153C355.507 223.215 353.538 223.597 351.645 223.214C350.318 222.955 349.086 222.346 348.075 221.449C347.013 220.502 345.888 219.479 344.685 218.417L336.792 211.291L336.562 211.087L336.779 210.856L341.717 205.406L346.668 199.982L346.873 199.752L347.103 199.957L354.932 207.134L358.284 210.217C359.278 211.136 360.003 212.308 360.382 213.607C360.938 215.452 360.745 217.442 359.845 219.146C359.542 219.772 359.121 220.332 358.604 220.796Z" fill="#263238"/>
<path d="M301.854 159.341L282.486 143.324C282.124 143.025 281.825 142.658 281.606 142.243C281.387 141.829 281.251 141.375 281.207 140.908C281.163 140.441 281.212 139.97 281.35 139.522C281.488 139.074 281.713 138.657 282.012 138.296C282.311 137.935 282.678 137.636 283.093 137.417C283.508 137.197 283.961 137.062 284.428 137.018C284.895 136.974 285.366 137.022 285.814 137.16C286.262 137.299 286.679 137.524 287.04 137.823L306.396 153.84L301.854 159.341Z" fill="#4326C4"/>
<path d="M283.637 182.739L264.294 166.722C263.931 166.424 263.631 166.057 263.411 165.643C263.19 165.229 263.053 164.776 263.008 164.309C262.963 163.842 263.01 163.37 263.148 162.922C263.285 162.473 263.509 162.056 263.807 161.694C264.105 161.331 264.472 161.031 264.887 160.811C265.301 160.59 265.755 160.454 266.223 160.41C266.69 160.366 267.162 160.415 267.61 160.554C268.058 160.693 268.475 160.92 268.835 161.221L288.204 177.225L283.637 182.739Z" fill="#4326C4"/>
<g opacity="0.6">
<path opacity="0.6" d="M301.854 159.341L282.486 143.324C282.124 143.025 281.825 142.658 281.606 142.243C281.387 141.829 281.251 141.375 281.207 140.908C281.163 140.441 281.212 139.97 281.35 139.522C281.488 139.074 281.713 138.657 282.012 138.296C282.311 137.935 282.678 137.636 283.093 137.417C283.508 137.197 283.961 137.062 284.428 137.018C284.895 136.974 285.366 137.022 285.814 137.16C286.262 137.299 286.679 137.524 287.04 137.823L306.396 153.84L301.854 159.341Z" fill="white"/>
</g>
<g opacity="0.6">
<path opacity="0.6" d="M283.637 182.739L264.294 166.722C263.931 166.424 263.631 166.057 263.411 165.643C263.19 165.229 263.053 164.776 263.008 164.309C262.963 163.842 263.01 163.37 263.148 162.922C263.285 162.473 263.509 162.056 263.807 161.694C264.105 161.331 264.472 161.031 264.887 160.811C265.301 160.59 265.755 160.454 266.223 160.41C266.69 160.366 267.162 160.415 267.61 160.554C268.058 160.693 268.475 160.92 268.835 161.221L288.204 177.225L283.637 182.739Z" fill="white"/>
</g>
<path d="M301.854 159.34C301.942 159.193 302.041 159.052 302.148 158.918L303.018 157.792L306.255 153.711V153.98L297.159 146.586L291.466 141.903L288.408 139.345L286.835 138.065C286.355 137.653 285.762 137.394 285.133 137.324C284.602 137.255 284.062 137.32 283.562 137.512C283.062 137.704 282.617 138.017 282.268 138.424C281.93 138.82 281.691 139.292 281.571 139.799C281.45 140.306 281.453 140.834 281.577 141.341C281.7 141.817 281.937 142.256 282.268 142.62C282.629 142.998 283.018 143.349 283.432 143.669L285.837 145.665L294.127 152.637L299.743 157.421L301.278 158.701C301.474 158.858 301.657 159.029 301.828 159.212C301.637 159.102 301.457 158.974 301.291 158.829L299.756 157.549C298.336 156.411 296.391 154.863 294.037 152.957L285.517 146.036L283.061 144.027C282.612 143.682 282.185 143.31 281.782 142.914C281.24 142.329 280.895 141.589 280.793 140.798C280.691 140.007 280.839 139.204 281.214 138.501C281.59 137.797 282.175 137.228 282.889 136.873C283.603 136.518 284.41 136.393 285.197 136.518C285.945 136.614 286.65 136.92 287.231 137.4L288.792 138.68L291.837 141.238L297.504 145.959L306.459 153.494L306.613 153.622L306.485 153.763L303.018 157.805L302.097 158.829C302.038 159.009 301.956 159.181 301.854 159.34Z" fill="#263238"/>
<path d="M283.637 182.738C283.724 182.586 283.827 182.445 283.944 182.316C284.174 182.008 284.456 181.637 284.814 181.19L288.05 177.109V177.377L278.955 169.97L273.262 165.301L270.204 162.742L268.631 161.463C268.141 161.058 267.547 160.801 266.916 160.721C266.384 160.658 265.844 160.726 265.345 160.92C264.845 161.114 264.401 161.428 264.051 161.834C263.711 162.23 263.472 162.701 263.354 163.209C263.236 163.717 263.242 164.246 263.373 164.751C263.494 165.225 263.726 165.664 264.051 166.03C264.417 166.404 264.81 166.751 265.228 167.066L267.62 169.075L275.923 176.047L281.539 180.832L283.074 182.111C283.271 182.261 283.452 182.433 283.611 182.623C283.611 182.623 283.432 182.507 283.087 182.239L281.539 181.023L275.82 176.431L267.313 169.51L264.857 167.488C264.402 167.151 263.974 166.779 263.577 166.375C263.179 165.921 262.898 165.377 262.759 164.789C262.603 164.189 262.595 163.56 262.735 162.957C262.876 162.353 263.16 161.792 263.565 161.322C263.987 160.848 264.519 160.483 265.114 160.26C265.71 160.038 266.35 159.963 266.98 160.043C267.728 160.14 268.433 160.446 269.014 160.926C269.539 161.373 270.063 161.796 270.588 162.205L273.633 164.764L279.3 169.471L288.255 177.019L288.396 177.147L288.281 177.288C286.822 178.964 285.658 180.32 284.801 181.318L283.893 182.354C283.765 182.635 283.637 182.751 283.637 182.738Z" fill="#263238"/>
<path d="M345.862 179.643L346.373 179.029C347.455 177.727 348.015 176.07 347.947 174.379C347.878 172.688 347.186 171.082 346.002 169.872C344.819 168.661 343.229 167.932 341.54 167.826C339.85 167.719 338.182 168.242 336.855 169.294L308.506 145.678L276.076 184.479L305.09 207.506C304.191 208.912 303.836 210.599 304.093 212.248C304.35 213.897 305.2 215.396 306.485 216.462C307.86 217.599 309.627 218.153 311.405 218.005C313.184 217.856 314.834 217.018 316.003 215.668C320.098 218.758 325.236 220.13 330.327 219.492C335.417 218.854 340.058 216.257 343.265 212.253L347.921 206.445C351.03 202.544 352.545 197.611 352.163 192.639C351.781 187.666 349.529 183.023 345.862 179.643Z" fill="#4326C4"/>
<path d="M345.862 179.644L346.105 179.861L346.783 180.514C347.159 180.86 347.505 181.237 347.819 181.639L348.446 182.407L349.086 183.341C350.216 184.972 351.08 186.773 351.645 188.676C352.496 191.548 352.682 194.577 352.187 197.532C351.693 200.486 350.532 203.29 348.792 205.729C347.755 207.2 346.553 208.594 345.376 210.117C344.189 211.724 342.876 213.235 341.449 214.633C338.205 217.667 334.03 219.516 329.602 219.878C324.701 220.304 319.815 218.91 315.875 215.963H316.272C315.075 217.328 313.408 218.191 311.602 218.381C310.665 218.48 309.716 218.39 308.814 218.118C307.911 217.845 307.071 217.396 306.344 216.795C305.003 215.679 304.114 214.112 303.846 212.388C303.577 210.664 303.947 208.901 304.886 207.43L304.95 207.827L282.447 189.878L275.884 184.659L275.628 184.467L275.833 184.211C287.654 170.138 298.694 156.91 308.302 145.448L308.481 145.23L308.686 145.41L336.971 169.089H336.753C337.788 168.276 339.031 167.771 340.34 167.634C341.648 167.497 342.969 167.733 344.149 168.315C345.329 168.898 346.321 169.802 347.009 170.923C347.697 172.045 348.053 173.339 348.037 174.654C348.013 176.034 347.566 177.374 346.758 178.492C346.553 178.774 346.33 179.043 346.092 179.298L345.849 179.567C345.849 179.567 346.156 179.183 346.681 178.441C347.435 177.303 347.835 175.968 347.832 174.603C347.828 173.527 347.567 172.468 347.071 171.513C346.575 170.559 345.858 169.737 344.979 169.115C343.867 168.295 342.524 167.847 341.141 167.836C339.606 167.817 338.111 168.328 336.907 169.281L336.792 169.371L336.677 169.281L308.276 145.742H308.66L276.319 184.633V184.185L282.869 189.405L305.321 207.315L305.539 207.481L305.385 207.712C304.517 209.053 304.168 210.665 304.403 212.245C304.639 213.826 305.443 215.266 306.664 216.296C307.982 217.386 309.674 217.917 311.379 217.776C313.083 217.635 314.665 216.833 315.786 215.541L315.965 215.349L316.169 215.503C319.821 218.228 324.312 219.589 328.862 219.348C333.412 219.107 337.734 217.28 341.078 214.185C342.469 212.802 343.753 211.313 344.915 209.733C346.105 208.223 347.333 206.816 348.357 205.383C350.644 202.186 351.918 198.375 352.014 194.445C352.109 190.514 351.023 186.646 348.894 183.341C348.677 183.008 348.472 182.688 348.267 182.394L347.653 181.627C347.347 181.213 347.013 180.82 346.655 180.45L346.003 179.772C345.9 179.686 345.854 179.644 345.862 179.644Z" fill="#263238"/>
<path d="M313.406 180.388L293.403 163.846L290.166 167.76L310.169 184.302L313.406 180.388Z" fill="#E0E0E0"/>
<path d="M345.862 179.645C345.547 180.177 345.187 180.682 344.787 181.154C344.071 182.114 343.009 183.47 341.678 185.133C339.03 188.472 335.282 193.013 331.098 197.99C326.915 202.966 323.192 207.38 320.365 210.719L317.116 214.557C316.731 215.047 316.303 215.501 315.836 215.913C316.151 215.38 316.511 214.875 316.911 214.403C317.627 213.444 318.689 212.088 320.02 210.425C322.668 207.086 326.416 202.544 330.6 197.632L341.333 184.838L344.595 181.001C344.973 180.51 345.398 180.056 345.862 179.645Z" fill="#263238"/>
<path d="M336.856 169.242C336.521 169.805 336.136 170.336 335.704 170.829C334.924 171.826 333.772 173.259 332.352 175.012C329.487 178.517 325.47 183.302 320.992 188.547C316.515 193.792 312.498 198.449 309.479 201.967C308.046 203.604 306.92 204.973 305.973 206.009C305.561 206.523 305.108 207.002 304.617 207.442C304.966 206.885 305.355 206.355 305.781 205.856C306.562 204.858 307.7 203.425 309.133 201.672C311.999 198.167 316.016 193.383 320.493 188.138L332.007 174.73L335.512 170.675C335.923 170.164 336.372 169.685 336.856 169.242Z" fill="#263238"/>
<path d="M287.934 113.25H278.696L283.302 100.652L269.229 119.945H278.467L273.861 132.543L287.934 113.25Z" fill="#BBBBD6"/>
<path d="M220.419 127.298H206.519L213.449 150.545L192.274 114.944H206.175L199.244 91.697L220.419 127.298Z" fill="#BBBBD6"/>
</g>
</svg>
