<svg width="60" height="60" viewBox="0 0 60 60" fill="none" xmlns="http://www.w3.org/2000/svg">
<g clip-path="url(#clip0_164_10101)">
<path d="M36.6349 43.9437C36.357 44.2217 36.0271 44.4423 35.6639 44.5927C35.3008 44.7432 34.9116 44.8206 34.5185 44.8206C34.1255 44.8206 33.7363 44.7432 33.3731 44.5927C33.01 44.4423 32.6801 44.2217 32.4022 43.9437L15.186 26.7303C12.703 24.1965 11.3201 20.7853 11.3381 17.2377C11.356 13.6902 12.7732 10.293 15.2817 7.78451C17.7902 5.27599 21.1874 3.85879 24.7349 3.84087C28.2825 3.82295 31.6937 5.20577 34.2275 7.68883L45.1083 18.5697C45.6681 19.1324 45.9815 19.8945 45.9795 20.6882C45.9774 21.482 45.6601 22.2425 45.0974 22.8023C44.5347 23.3621 43.7726 23.6755 42.9788 23.6735C42.1851 23.6714 41.4246 23.3541 40.8648 22.7914L29.9975 11.9106C28.5936 10.5067 26.6895 9.71794 24.704 9.71794C22.7186 9.71794 20.8144 10.5067 19.4105 11.9106C18.0066 13.3145 17.2179 15.2187 17.2179 17.2041C17.2178 19.1896 18.0066 21.0937 19.4105 22.4976L36.6267 39.7138C37.1884 40.2738 37.5048 41.0339 37.5063 41.8271C37.5078 42.6203 37.1944 43.3816 36.6349 43.9437Z" fill="#7C5CFC"/>
<path d="M45.0021 52.3111C42.4748 54.832 39.051 56.2477 35.4814 56.2477C31.9118 56.2477 28.4879 54.832 25.9606 52.3111L15.0934 41.4303C14.7919 41.1583 14.5488 40.8277 14.3791 40.4587C14.2095 40.0897 14.1167 39.69 14.1064 39.284C14.0962 38.878 14.1687 38.4741 14.3196 38.0971C14.4704 37.72 14.6965 37.3776 14.9839 37.0907C15.2714 36.8038 15.6142 36.5784 15.9916 36.4282C16.369 36.2781 16.773 36.2064 17.179 36.2174C17.5849 36.2284 17.9844 36.322 18.3531 36.4924C18.7218 36.6628 19.0519 36.9065 19.3233 37.2085L30.1906 48.0894C31.5966 49.4767 33.4944 50.2516 35.4696 50.245C37.4449 50.2384 39.3374 49.4508 40.7341 48.054C42.1309 46.6573 42.9185 44.7648 42.9251 42.7895C42.9317 40.8143 42.1568 38.9166 40.7695 37.5105L23.5533 20.2861C22.992 19.7248 22.6767 18.9636 22.6767 18.1698C22.6767 17.376 22.992 16.6148 23.5533 16.0535C24.1145 15.4922 24.8758 15.1769 25.6696 15.1769C26.4634 15.1769 27.2246 15.4922 27.7859 16.0535L45.0021 33.2697C47.5237 35.7966 48.9398 39.2206 48.9398 42.7904C48.9398 46.3602 47.5237 49.7842 45.0021 52.3111Z" fill="#7C5CFC"/>
</g>
<defs>
<clipPath id="clip0_164_10101">
<rect width="37.6885" height="52.5" fill="white" transform="translate(11.25 3.75)"/>
</clipPath>
</defs>
</svg>
