<svg width="100%" height="100%" viewBox="0 0 269 60" fill="none" xmlns="http://www.w3.org/2000/svg">
<g clip-path="url(#clip0_164_10100)">
<path d="M36.6349 43.9437C36.357 44.2217 36.0271 44.4423 35.6639 44.5927C35.3008 44.7432 34.9116 44.8206 34.5185 44.8206C34.1255 44.8206 33.7363 44.7432 33.3731 44.5927C33.01 44.4423 32.6801 44.2217 32.4022 43.9437L15.186 26.7303C12.703 24.1965 11.3201 20.7853 11.3381 17.2377C11.356 13.6902 12.7732 10.293 15.2817 7.78451C17.7902 5.27599 21.1874 3.85879 24.7349 3.84087C28.2825 3.82295 31.6937 5.20577 34.2275 7.68883L45.1083 18.5697C45.6681 19.1324 45.9815 19.8945 45.9795 20.6882C45.9774 21.482 45.6601 22.2425 45.0974 22.8023C44.5347 23.3621 43.7726 23.6755 42.9788 23.6735C42.1851 23.6714 41.4246 23.3541 40.8648 22.7914L29.9975 11.9106C28.5936 10.5067 26.6895 9.71794 24.704 9.71794C22.7186 9.71794 20.8144 10.5067 19.4105 11.9106C18.0066 13.3145 17.2179 15.2187 17.2179 17.2041C17.2178 19.1896 18.0066 21.0937 19.4105 22.4976L36.6267 39.7138C37.1884 40.2738 37.5048 41.0339 37.5063 41.8271C37.5078 42.6203 37.1944 43.3816 36.6349 43.9437Z" fill="#7C5CFC"/>
<path d="M45.0021 52.3111C42.4748 54.832 39.051 56.2477 35.4814 56.2477C31.9118 56.2477 28.4879 54.832 25.9606 52.3111L15.0934 41.4303C14.7919 41.1583 14.5488 40.8277 14.3791 40.4587C14.2095 40.0897 14.1167 39.69 14.1064 39.284C14.0962 38.878 14.1687 38.4741 14.3196 38.0971C14.4704 37.72 14.6965 37.3776 14.9839 37.0907C15.2714 36.8038 15.6142 36.5784 15.9916 36.4282C16.369 36.2781 16.773 36.2064 17.179 36.2174C17.5849 36.2284 17.9844 36.322 18.3531 36.4924C18.7218 36.6628 19.0519 36.9065 19.3233 37.2085L30.1906 48.0894C31.5966 49.4767 33.4944 50.2516 35.4696 50.245C37.4449 50.2384 39.3374 49.4508 40.7341 48.054C42.1309 46.6573 42.9185 44.7648 42.9251 42.7895C42.9317 40.8143 42.1568 38.9166 40.7695 37.5105L23.5533 20.2861C22.992 19.7248 22.6767 18.9636 22.6767 18.1698C22.6767 17.376 22.992 16.6148 23.5533 16.0535C24.1145 15.4922 24.8758 15.1769 25.6696 15.1769C26.4634 15.1769 27.2246 15.4922 27.7859 16.0535L45.0021 33.2697C47.5237 35.7966 48.9398 39.2206 48.9398 42.7904C48.9398 46.3602 47.5237 49.7842 45.0021 52.3111Z" fill="#7C5CFC"/>
</g>
<path d="M89.28 45L85.92 21.192H91.92L94.032 40.92H94.896L97.968 21.192H107.664L110.736 40.92H111.6L113.712 21.192H119.712L116.352 45H106.32L103.248 25.272H102.384L99.312 45H89.28ZM132.633 45.384C130.777 45.384 129.145 44.968 127.737 44.136C126.361 43.272 125.289 42.088 124.521 40.584C123.753 39.08 123.369 37.352 123.369 35.4V21.192H129.417V34.92C129.417 36.712 129.849 38.056 130.713 38.952C131.609 39.848 132.873 40.296 134.505 40.296C136.361 40.296 137.801 39.688 138.825 38.472C139.849 37.224 140.361 35.496 140.361 33.288V21.192H146.409V45H140.457V41.88H139.593C139.209 42.68 138.489 43.464 137.433 44.232C136.377 45 134.777 45.384 132.633 45.384ZM162.883 45.672C160.579 45.672 158.483 45.192 156.595 44.232C154.739 43.272 153.267 41.88 152.179 40.056C151.091 38.232 150.547 36.024 150.547 33.432V32.76C150.547 30.168 151.091 27.96 152.179 26.136C153.267 24.312 154.739 22.92 156.595 21.96C158.483 21 160.579 20.52 162.883 20.52C165.155 20.52 167.107 20.92 168.739 21.72C170.371 22.52 171.683 23.624 172.675 25.032C173.699 26.408 174.371 27.976 174.691 29.736L168.835 30.984C168.707 30.024 168.419 29.16 167.971 28.392C167.523 27.624 166.883 27.016 166.051 26.568C165.251 26.12 164.243 25.896 163.027 25.896C161.811 25.896 160.707 26.168 159.715 26.712C158.755 27.224 157.987 28.008 157.411 29.064C156.867 30.088 156.595 31.352 156.595 32.856V33.336C156.595 34.84 156.867 36.12 157.411 37.176C157.987 38.2 158.755 38.984 159.715 39.528C160.707 40.04 161.811 40.296 163.027 40.296C164.851 40.296 166.227 39.832 167.155 38.904C168.115 37.944 168.723 36.696 168.979 35.16L174.835 36.552C174.419 38.248 173.699 39.8 172.675 41.208C171.683 42.584 170.371 43.672 168.739 44.472C167.107 45.272 165.155 45.672 162.883 45.672ZM178.384 45V11.4H184.432V24.12H185.296C185.552 23.608 185.952 23.096 186.496 22.584C187.04 22.072 187.76 21.656 188.656 21.336C189.584 20.984 190.752 20.808 192.16 20.808C194.016 20.808 195.632 21.24 197.008 22.104C198.416 22.936 199.504 24.104 200.272 25.608C201.04 27.08 201.424 28.808 201.424 30.792V45H195.376V31.272C195.376 29.48 194.928 28.136 194.032 27.24C193.168 26.344 191.92 25.896 190.288 25.896C188.432 25.896 186.992 26.52 185.968 27.768C184.944 28.984 184.432 30.696 184.432 32.904V45H178.384ZM206.522 45V21.192H212.57V45H206.522ZM209.546 18.408C208.458 18.408 207.53 18.056 206.762 17.352C206.026 16.648 205.658 15.72 205.658 14.568C205.658 13.416 206.026 12.488 206.762 11.784C207.53 11.08 208.458 10.728 209.546 10.728C210.666 10.728 211.594 11.08 212.33 11.784C213.066 12.488 213.434 13.416 213.434 14.568C213.434 15.72 213.066 16.648 212.33 17.352C211.594 18.056 210.666 18.408 209.546 18.408ZM221.624 45.672C220.344 45.672 219.256 45.256 218.36 44.424C217.496 43.56 217.064 42.456 217.064 41.112C217.064 39.768 217.496 38.68 218.36 37.848C219.256 36.984 220.344 36.552 221.624 36.552C222.936 36.552 224.024 36.984 224.888 37.848C225.752 38.68 226.184 39.768 226.184 41.112C226.184 42.456 225.752 43.56 224.888 44.424C224.024 45.256 222.936 45.672 221.624 45.672ZM230.497 45V11.4H236.833V45H230.497ZM241.905 45V21.192H247.857V24.312H248.721C249.105 23.48 249.825 22.696 250.881 21.96C251.937 21.192 253.537 20.808 255.681 20.808C257.537 20.808 259.153 21.24 260.529 22.104C261.937 22.936 263.025 24.104 263.793 25.608C264.561 27.08 264.945 28.808 264.945 30.792V45H258.897V31.272C258.897 29.48 258.449 28.136 257.553 27.24C256.689 26.344 255.441 25.896 253.809 25.896C251.953 25.896 250.513 26.52 249.489 27.768C248.465 28.984 247.953 30.696 247.953 32.904V45H241.905Z" fill="black"/>
<defs>
<clipPath id="clip0_164_10100">
<rect width="37.6885" height="52.5" fill="white" transform="translate(11.25 3.75)"/>
</clipPath>
</defs>
</svg>
